<?xml version="1.0" standalone="no"?>
<!DOCTYPE svg PUBLIC "-//W3C//DTD SVG 20010904//EN"
 "http://www.w3.org/TR/2001/REC-SVG-20010904/DTD/svg10.dtd">
<svg version="1.0" xmlns="http://www.w3.org/2000/svg"
 width="336.000000pt" height="114.000000pt" viewBox="0 0 336.000000 114.000000"
 preserveAspectRatio="xMidYMid meet">

<g transform="translate(0.000000,114.000000) scale(0.100000,-0.100000)"
fill="#000000" stroke="none">
<path d="M1800 1020 l0 -40 40 0 40 0 0 -190 0 -190 40 0 40 0 0 190 0 190 45
0 45 0 0 40 0 40 -125 0 -125 0 0 -40z"/>
<path d="M2186 929 c-21 -17 -26 -18 -26 -5 0 12 -10 16 -35 16 l-35 0 0 -170
0 -170 40 0 40 0 0 118 c0 129 11 162 54 162 22 0 35 21 36 58 0 19 -45 14
-74 -9z"/>
<path d="M2391 929 c-49 -30 -69 -57 -82 -114 -20 -90 17 -170 95 -206 52 -24
73 -24 121 1 34 17 40 18 48 5 4 -9 22 -15 42 -15 l34 0 3 170 3 170 -42 0
c-30 0 -43 -4 -43 -14 0 -11 -8 -10 -37 5 -48 25 -100 24 -142 -2z m156 -81
c44 -41 39 -129 -11 -163 -27 -19 -86 -19 -113 0 -13 9 -28 33 -34 54 -10 33
-9 45 7 77 32 66 100 80 151 32z"/>
<path d="M2872 931 c-39 -25 -42 -25 -42 -6 0 11 -11 15 -40 15 l-40 0 0 -170
0 -170 39 0 39 0 4 116 c3 113 4 116 31 140 34 29 61 30 87 4 18 -18 20 -33
20 -140 l0 -120 41 0 40 0 -3 145 c-3 141 -4 145 -29 171 -37 36 -102 43 -147
15z"/>
<path d="M3185 938 c-34 -18 -55 -51 -55 -86 0 -39 30 -72 103 -114 51 -30 59
-51 26 -68 -16 -9 -28 -7 -59 9 l-38 20 -23 -25 c-22 -23 -22 -24 -4 -44 23
-25 88 -43 126 -35 16 4 43 18 59 32 25 20 30 32 30 67 0 52 -19 80 -73 107
-61 31 -79 49 -66 66 15 18 40 17 68 -3 22 -15 24 -15 43 4 27 26 18 49 -27
67 -41 18 -82 19 -110 3z"/>
<path d="M1290 650 c0 -13 7 -20 19 -20 38 0 30 -18 -37 -82 -234 -225 -513
-225 -763 0 -63 57 -71 72 -39 72 13 0 20 7 20 20 0 26 -29 26 -79 0 -37 -19
-51 -36 -51 -66 0 -19 27 -18 38 2 7 13 18 7 63 -37 121 -118 267 -188 411
-196 75 -5 98 -2 170 20 97 31 190 89 270 169 56 56 78 69 78 48 0 -5 7 -10
15 -10 18 0 19 29 1 52 -14 19 -75 48 -101 48 -8 0 -15 -9 -15 -20z"/>
<path d="M44 213 c-3 -10 -10 -26 -15 -35 -6 -12 -6 -18 1 -18 5 0 11 -26 12
-57 l2 -58 3 55 c3 30 10 58 16 62 9 6 9 8 0 8 -16 0 -17 32 -1 48 9 9 9 12 0
12 -7 0 -15 -8 -18 -17z"/>
<path d="M1991 203 c0 -19 -6 -33 -13 -33 -10 0 -10 -2 -1 -8 6 -4 13 -32 16
-62 l3 -55 2 58 c2 46 5 57 19 57 15 0 15 1 1 13 -9 6 -19 23 -21 37 -4 21 -5
20 -6 -7z"/>
<path d="M2305 220 c-3 -5 -1 -10 4 -10 6 0 11 5 11 10 0 6 -2 10 -4 10 -3 0
-8 -4 -11 -10z"/>
<path d="M1011 198 c0 -16 -7 -28 -13 -28 -10 0 -10 -2 -1 -8 6 -4 13 -32 16
-62 l3 -55 2 58 c2 46 5 57 19 57 15 0 15 1 1 13 -9 6 -18 21 -21 32 -4 15 -5
13 -6 -7z"/>
<path d="M2241 198 c0 -16 -7 -28 -13 -28 -10 0 -10 -2 -1 -8 6 -4 13 -32 16
-62 l3 -55 2 58 c2 46 5 57 19 57 15 0 15 1 1 13 -9 6 -18 21 -21 32 -4 15 -5
13 -6 -7z"/>
<path d="M3330 184 c0 -31 -2 -35 -15 -24 -8 6 -20 10 -27 7 -8 -4 -7 -6 4 -6
18 -1 38 -29 38 -55 0 -42 -80 -64 -100 -27 -16 31 -12 59 12 75 12 9 18 16
12 16 -19 0 -44 -36 -44 -62 0 -46 59 -74 100 -48 9 6 17 5 22 -3 4 -7 8 27 8
76 0 48 -2 87 -5 87 -3 0 -5 -16 -5 -36z"/>
<path d="M150 172 c-49 -15 -66 -74 -32 -105 43 -39 112 -8 112 49 0 33 -48
67 -80 56z m62 -38 c18 -40 -4 -74 -46 -74 -41 0 -61 27 -52 66 12 46 79 51
98 8z"/>
<path d="M605 170 c3 -6 12 -10 19 -10 7 0 18 -12 25 -26 10 -22 9 -31 -4 -50
-17 -26 -62 -33 -83 -12 -20 20 -14 65 10 82 12 9 17 16 11 16 -21 0 -43 -31
-43 -59 0 -63 89 -84 120 -28 13 24 13 30 0 53 -8 15 -25 31 -38 35 -15 6 -21
5 -17 -1z"/>
<path d="M1200 172 c-49 -16 -66 -74 -31 -106 13 -12 32 -16 65 -14 l46 3 0
58 c0 33 -4 56 -9 53 -5 -4 -20 -2 -33 2 -12 5 -30 7 -38 4z m64 -35 c14 -22
-4 -71 -27 -75 -52 -10 -86 23 -72 69 13 39 76 43 99 6z"/>
<path d="M1630 174 c0 -2 11 -9 25 -14 54 -21 43 -91 -15 -101 l-35 -6 31 -2
c55 -2 87 66 47 101 -19 16 -53 31 -53 22z"/>
<path d="M2930 168 c-13 -5 -28 -14 -32 -21 -13 -20 -9 -65 8 -81 20 -20 78
-21 94 -1 8 9 9 15 2 15 -6 0 -14 -4 -17 -10 -9 -14 -58 -13 -73 2 -26 26 -13
37 48 40 59 3 59 3 47 27 -15 30 -45 41 -77 29z m68 -36 c2 -8 -13 -12 -48
-12 -56 0 -64 15 -19 37 19 10 28 10 43 -1 11 -7 22 -18 24 -24z"/>
<path d="M261 105 l2 -60 6 49 c4 28 14 54 25 61 15 12 15 13 -8 11 -25 -1
-26 -3 -25 -61z"/>
<path d="M410 145 c5 -14 17 -39 26 -56 13 -25 14 -37 5 -57 -7 -13 -10 -26
-8 -28 2 -3 21 32 41 77 20 45 34 84 32 87 -3 3 -14 -16 -25 -42 -11 -25 -22
-46 -25 -46 -3 0 -14 20 -25 45 -21 47 -37 63 -21 20z"/>
<path d="M704 121 c3 -57 14 -71 57 -71 37 0 49 18 47 74 l-1 51 -4 -45 c-5
-53 -17 -70 -49 -70 -28 0 -36 13 -46 70 -7 45 -7 45 -4 -9z"/>
<path d="M851 105 l2 -60 6 53 c4 30 13 57 21 62 11 7 9 9 -8 7 -20 -1 -22 -6
-21 -62z"/>
<path d="M1079 160 c-6 -21 -3 -110 3 -110 5 0 8 22 8 50 0 36 5 52 18 59 15
9 14 10 -5 8 -13 -1 -24 -4 -24 -7z"/>
<path d="M1332 106 c1 -54 2 -56 5 -16 5 55 18 72 52 68 24 -3 27 -8 32 -58
l6 -55 1 50 c2 66 -6 77 -56 74 l-42 -3 2 -60z"/>
<path d="M1477 163 c-15 -14 -6 -40 18 -51 15 -7 25 -20 25 -33 0 -17 -5 -20
-25 -17 -14 3 -25 1 -25 -4 0 -5 12 -8 28 -6 38 4 42 41 8 64 -34 21 -33 42 2
47 l27 4 -26 2 c-14 0 -29 -2 -32 -6z"/>
<path d="M1572 85 c1 -50 3 -73 5 -52 3 22 8 35 15 31 6 -4 6 1 -1 14 -16 30
-14 49 9 72 11 11 16 20 11 20 -6 0 -13 -5 -17 -11 -4 -8 -9 -7 -15 2 -5 8 -8
-23 -7 -76z"/>
<path d="M1746 148 c-21 -30 -20 -54 4 -78 41 -41 110 -14 110 43 0 26 -23 57
-43 57 -6 0 -1 -7 11 -16 24 -17 30 -62 10 -82 -21 -21 -66 -14 -83 12 -13 19
-13 28 -4 49 7 14 19 28 28 30 14 4 14 5 -1 6 -9 0 -24 -9 -32 -21z"/>
<path d="M1890 108 c0 -37 4 -57 10 -53 6 3 10 26 10 51 0 37 4 46 23 53 19 8
18 9 -10 9 l-33 -1 0 -59z"/>
<path d="M2065 146 c-19 -29 -11 -72 15 -86 25 -13 67 -13 76 1 4 8 9 7 15 -2
5 -9 9 9 9 46 0 57 -1 60 -26 61 -25 2 -25 2 -5 -13 23 -16 28 -62 9 -81 -21
-21 -66 -14 -83 12 -13 19 -13 28 -4 49 7 14 19 28 28 30 14 4 14 5 -1 6 -10
0 -25 -10 -33 -23z"/>
<path d="M2313 110 c0 -36 2 -50 4 -32 2 17 2 47 0 65 -2 17 -4 3 -4 -33z"/>
<path d="M2372 158 c-17 -17 -15 -74 4 -92 20 -20 68 -20 88 0 32 31 15 104
-23 104 -11 0 -9 -5 7 -16 24 -17 30 -62 10 -82 -15 -15 -61 -15 -76 0 -20 20
-14 65 10 82 16 11 18 16 7 16 -8 0 -20 -5 -27 -12z"/>
<path d="M2522 105 c0 -33 3 -46 5 -30 6 47 23 83 41 88 10 3 2 4 -15 3 l-33
-1 2 -60z"/>
<path d="M2603 159 c12 -7 17 -24 19 -62 1 -46 2 -47 5 -13 6 53 -4 86 -25 86
-16 -1 -16 -1 1 -11z"/>
<path d="M2742 105 c0 -33 3 -46 5 -30 7 60 14 76 36 85 19 7 18 8 -10 7 l-33
-2 2 -60z"/>
<path d="M2820 160 c8 -5 17 -32 21 -62 l6 -53 2 51 c1 48 -11 74 -33 74 -6 0
-4 -4 4 -10z"/>
<path d="M3066 155 c-21 -22 -20 -68 2 -88 23 -21 75 -22 92 -2 8 9 9 15 2 15
-6 0 -14 -4 -17 -10 -9 -14 -58 -13 -73 2 -26 26 -13 37 48 40 l59 3 -12 25
c-16 31 -76 40 -101 15z m82 -7 c22 -22 13 -28 -38 -28 -27 0 -50 4 -50 8 0
16 25 32 50 32 14 0 31 -5 38 -12z"/>
</g>
</svg>
